<svg width="366" height="202" viewBox="0 0 366 202" fill="none" xmlns="http://www.w3.org/2000/svg">
<g clip-path="url(#clip0_1_184)">
<path d="M0 184.062C0.2 183.395 0.392957 182.727 0.592957 182.062C2.72396 174.962 9.522 170.67 17.198 171.562C21.32 172.043 24.188 173.272 26.3979 175.546L22.73 179.969C20.6 179.102 18.72 177.964 16.696 177.582C10.273 176.368 6.20895 181.918 6.70795 187.27C7.42095 194.91 14.753 197.202 20.433 194.27C20.6552 194.114 20.8427 193.914 20.984 193.682C21.1253 193.45 21.2172 193.192 21.254 192.923C21.3313 191.873 21.344 190.819 21.292 189.768H14.992V184.284H27.464C27.464 188.314 27.479 192.295 27.437 196.276C27.3688 196.669 27.1505 197.021 26.828 197.256C24.0019 199.535 20.5602 200.92 16.943 201.233C16.6645 201.281 16.3907 201.353 16.125 201.449H14.1089C13.7089 201.364 13.322 201.249 12.923 201.197C7.12297 200.368 2.97499 197.397 0.86499 191.837C0.49799 190.869 0.280995 189.845 -0.00500488 188.847L0 184.062Z" fill="white"/>
<path d="M365.203 200.948C364.703 200.906 364.209 200.83 363.712 200.829C356.745 200.821 349.778 200.819 342.812 200.824H341.225C341.225 199.213 341.179 197.747 341.256 196.287C341.352 195.846 341.576 195.444 341.901 195.132C346.594 189.651 351.294 184.176 356.001 178.709C356.261 178.409 356.491 178.076 356.871 177.582H341.749V171.962H365.203V177.003C365.038 177.124 364.882 177.258 364.737 177.403C361.508 181.16 358.281 184.919 355.058 188.681C353.265 190.77 351.468 192.855 349.499 195.146H365.203V200.948Z" fill="white"/>
<path d="M100.78 63.992C100.504 57.674 101.444 51.992 107.655 48.504C107.436 49.098 107.239 49.704 106.996 50.284C103.945 57.61 102.591 65.184 104.18 73.039C104.733 75.2383 105.627 77.3374 106.83 79.26C109.156 83.333 111.692 87.287 114.148 91.286C114.212 91.3875 114.296 91.474 114.397 91.5396C114.497 91.6052 114.61 91.6483 114.729 91.666C114.388 90.882 114.049 90.096 113.706 89.313C111.922 85.2698 110.909 80.9284 110.721 76.513C110.6 74.62 110.905 72.724 111.612 70.9639C112.319 69.2039 113.411 67.6243 114.808 66.341C115.022 66.1393 115.247 65.95 115.482 65.774C115.67 65.6847 115.867 65.6147 116.07 65.565C115.706 67.027 115.377 68.333 115.056 69.641C113.013 77.9373 113.685 86.6701 116.974 94.556C117.305 95.2787 117.76 95.9382 118.318 96.505C120.182 98.6087 122.167 100.602 124.262 102.476C124.083 102.076 123.91 101.666 123.724 101.265C121.624 96.73 120.077 92.037 120.253 86.975C120.352 83.9589 121.578 81.0895 123.689 78.933C123.891 78.7203 124.105 78.5199 124.331 78.333C124.494 78.2507 124.667 78.1889 124.845 78.149L123.686 85.46C124.995 82.07 126.749 79.123 130.327 77.51C130.113 78.094 129.913 78.683 129.682 79.26C127.528 84.626 125.806 90.106 126.095 95.971C126.239 98.895 126.708 101.805 127.08 104.714C127.156 105.123 127.374 105.491 127.696 105.754C130.485 107.954 133.303 110.119 136.112 112.294L136.407 112.041C136.063 111.35 135.707 110.663 135.376 109.967C133.301 105.875 132.095 101.398 131.832 96.817C131.747 95.134 132.005 93.4512 132.591 91.8713C133.177 90.2913 134.079 88.8472 135.241 87.627C135.472 87.3839 135.716 87.1546 135.974 86.94C136.159 86.8386 136.353 86.7558 136.554 86.693C135.522 91.2658 135.042 95.9459 135.124 100.633C135.576 98.1883 136.169 95.7716 136.899 93.395C137.376 92.1091 138.108 90.9332 139.052 89.9382C139.995 88.9433 141.131 88.1499 142.39 87.606C142.137 88.334 142.027 88.765 141.843 89.163C140.106 93.0322 138.909 97.1213 138.283 101.316C137.792 105.323 137.929 109.382 138.689 113.347C138.736 113.634 138.893 113.891 139.127 114.063C142.074 115.805 145.038 117.517 147.998 119.237L148.289 118.96C148.05 118.46 147.821 117.96 147.571 117.468C145.992 114.496 144.988 111.253 144.614 107.908C144.413 106.276 144.601 104.62 145.164 103.075C145.726 101.529 146.647 100.14 147.85 99.019C147.658 102.985 147.472 106.819 147.287 110.652L147.481 110.642C147.762 108.371 148.199 106.122 148.792 103.912C149.168 102.759 149.787 101.7 150.606 100.806C151.425 99.9119 152.426 99.203 153.541 98.727C152.819 100.703 152.141 102.44 151.549 104.203C149.869 109.112 149.49 114.373 150.449 119.473C150.512 119.736 150.628 119.983 150.79 120.2C150.952 120.417 151.156 120.599 151.39 120.734C160.916 125.209 170.787 128.912 180.907 131.805C181.386 131.947 181.894 131.956 182.378 131.831C193.278 128.604 204.078 125.099 214.278 119.973C221.705 116.321 228.669 111.795 235.022 106.491C236.051 105.649 236.877 104.586 237.439 103.381C239.383 98.796 241.03 94.081 243.005 89.512C244.696 85.598 246.683 81.812 248.55 77.972C248.781 77.5937 249.036 77.2306 249.314 76.885C249.627 84.965 246.57 91.726 243.156 98.485C244.781 97.42 249.642 91.526 252.391 86.785C254.916 82.5338 257.187 78.1363 259.191 73.616C261.148 69.066 262.519 64.264 264.271 59.556C264.224 59.875 264.196 60.198 264.128 60.512C259.373 82.712 247.934 100.583 229.549 113.978C221.285 119.891 212.378 124.847 202.997 128.752C202.66 128.87 202.363 129.08 202.138 129.358C203.157 129.183 204.179 129.027 205.192 128.826C206.261 128.614 207.322 128.36 208.386 128.126C220.554 125.559 232.228 121.044 242.958 114.757C249.748 110.787 255.924 105.847 261.288 100.094C267.071 93.9951 271.828 86.9994 275.374 79.379C275.524 79.0087 275.758 78.6788 276.059 78.416C274.373 82.9449 272.253 87.3001 269.729 91.421C274.726 88.1511 280.179 85.6373 285.911 83.961L286.104 84.24C284.599 85.47 283.173 86.815 281.573 87.906C277.691 90.551 273.684 93.014 269.808 95.668C265.452 98.5178 261.463 101.891 257.929 105.713C264.601 102.942 271.111 100.468 278.329 101.496C274.844 102.806 271.329 104.049 267.88 105.441C261.621 107.966 255.368 110.511 249.18 113.202C247.563 114.089 246.019 115.102 244.561 116.231C233.683 123.091 221.748 128.11 209.237 131.086C203.837 132.43 198.322 133.349 192.86 134.465C192.579 134.522 192.304 134.609 192.026 134.682L191.978 135.044L222.891 141.544L222.906 141.744C222.491 141.744 222.074 141.767 221.661 141.744C209.848 140.992 198.109 139.339 186.547 136.8C185.523 136.574 184.509 136.286 183.474 136.138C182.709 135.987 181.922 135.979 181.154 136.115C167.909 139.394 154.375 141.37 140.745 142.015C140.506 142.026 140.265 142.015 140.025 142.015L139.973 141.715L165.149 136.415L141.9 134.729L141.918 134.229L171.368 133.214L171.431 132.849C171.076 132.705 170.731 132.535 170.364 132.42C164.207 130.468 158.188 128.104 152.348 125.346C151.303 124.923 150.204 124.651 149.083 124.538C139.643 123.098 130.837 125.188 122.419 129.393C122.082 129.561 121.743 129.726 121.399 129.878C121.332 129.907 121.237 129.878 120.935 129.856C121.143 129.331 121.388 128.821 121.669 128.331C122.94 126.417 124.645 124.829 126.645 123.697C128.644 122.565 130.882 121.92 133.178 121.814C134.214 121.753 135.245 121.628 136.265 121.437C130.659 121.358 125.072 122.115 119.689 123.684L119.502 123.419C119.784 123.004 120.091 122.606 120.421 122.228C124.252 118.308 128.984 117.339 134.199 118.159C136.711 118.554 139.199 119.129 141.256 119.536C136.111 114.807 129.569 112.566 122.218 112.436C117.389 112.439 112.592 113.208 108.004 114.714C107.413 114.894 106.822 115.071 106.187 115.263C106.502 113.563 108.83 111.357 112.026 110.387C114.382 109.821 116.777 109.428 119.191 109.211C114.575 108.725 109.916 108.807 105.32 109.454C106.807 107.7 108.82 106.473 111.06 105.954C115.423 104.722 119.427 106.176 123.414 107.661C124.609 108.106 125.756 108.678 127.125 109.281C124.906 107.134 122.87 105.145 120.802 103.189C120.502 102.967 120.154 102.818 119.786 102.753C112.671 100.914 105.172 101.216 98.2289 103.622C97.6087 103.843 96.9617 103.981 96.305 104.032C99.584 99.211 104.343 98.216 109.776 98.947L109.744 98.613C108.259 98.497 106.775 98.343 105.288 98.276C103.696 98.205 102.097 98.149 100.506 98.214C98.9689 98.277 97.4389 98.502 95.6259 98.684C96.8586 97.1547 98.5525 96.0645 100.455 95.576C103.467 94.7091 106.681 94.8574 109.601 95.998C111.965 96.821 114.275 97.798 116.65 98.721C116.543 98.553 116.419 98.333 116.271 98.132C114.407 95.596 112.562 93.047 110.653 90.546C110.279 90.0695 109.772 89.716 109.195 89.531C102.26 87.522 95.4179 88.177 88.6409 90.348C88.1409 90.509 87.633 90.667 86.809 90.927C87.3876 89.8447 88.1798 88.8911 89.1378 88.124C90.0957 87.3568 91.1994 86.7921 92.382 86.464C94.5012 86.0122 96.6468 85.6946 98.806 85.513C94.7872 85.0647 90.7289 85.1057 86.72 85.635L86.543 85.289C87.3444 84.6432 88.1887 84.0525 89.07 83.521C91.7473 82.1359 94.85 81.8172 97.753 82.629C101.529 83.6019 105.145 85.1113 108.492 87.111C108.12 86.506 107.782 85.8811 107.479 85.239C104.379 77.685 97.851 74.681 90.639 72.706C88.149 72.024 85.539 71.8 82.978 71.363C82.737 71.322 82.501 71.252 82.071 71.15C83.2508 70.1588 84.7033 69.5487 86.237 69.4C88.7863 69.0114 91.3932 69.4355 93.6879 70.612C97.3159 72.4347 100.656 74.7811 103.601 77.576C103.518 77.301 103.445 77.022 103.35 76.75C102.221 73.507 101.104 70.259 99.944 67.027C99.7418 66.4835 99.4419 65.9815 99.059 65.546C95.3399 61.4477 90.4965 58.5349 85.133 57.171C84.811 57.079 84.487 56.993 84.169 56.888C84.0125 56.8117 83.863 56.722 83.722 56.62C85.0109 55.9767 86.4589 55.722 87.89 55.887C91.258 56.161 93.675 58.181 95.97 60.378C96.928 61.295 97.79 62.312 98.757 63.349C97.491 53.124 93.012 44.982 83.91 39.499C88.12 38.879 92.49 41.029 96.239 50.537C96.239 49.659 96.271 49.123 96.239 48.592C95.839 42.859 95.3629 37.131 95.0529 31.392C94.8659 28.4303 94.874 25.4596 95.077 22.499C95.1106 21.1022 95.4764 19.7336 96.144 18.5063C96.8116 17.2789 97.7617 16.2282 98.916 15.441C99.5515 15.0474 100.244 14.7533 100.968 14.569C97.551 19.634 95.046 24.906 95.794 31.345C97.163 27.912 97.95 26.999 100.227 26.381C96.496 31.352 95.6119 36.749 96.7509 42.861C97.8799 40.461 99.128 38.485 101.845 37.489C101.508 38.137 101.291 38.543 101.084 38.953C99.4549 42.185 97.803 45.464 97.796 49.153C97.8991 51.3678 98.2306 53.5661 98.785 55.713C99.366 58.492 100.107 61.235 100.78 63.992Z" fill="white"/>
<path d="M193.21 35.405C193.52 35.265 193.83 35.005 194.14 35.005C200.353 35.005 206.566 35.041 212.779 35.067C213.9 35.067 215.02 35.067 216.323 35.067V44.509C215.956 43.92 215.709 43.591 215.53 43.228C214.622 41.385 213.707 39.546 212.844 37.682C212.635 37.1504 212.267 36.6963 211.79 36.3819C211.313 36.0676 210.751 35.9084 210.18 35.926C208.038 35.902 205.896 35.926 203.753 35.905C203.037 35.898 202.787 36.267 202.777 36.914C202.722 40.482 202.645 44.05 202.642 47.614C202.698 47.7991 202.8 47.9668 202.939 48.1009C203.079 48.2351 203.25 48.3312 203.437 48.38C204.527 48.4144 205.618 48.3508 206.696 48.19C207.125 48.0635 207.49 47.7772 207.714 47.39C208.354 46.358 208.89 45.263 209.491 44.206C209.751 43.8202 210.033 43.4493 210.335 43.095V55.333L210.111 55.467C209.883 55.1997 209.679 54.913 209.501 54.61C208.829 53.21 208.236 51.778 207.517 50.41C207.03 49.483 203.739 48.775 202.917 49.387C202.706 49.6303 202.598 49.9465 202.617 50.268C202.598 54.384 202.622 58.501 202.589 62.617C202.582 63.499 202.967 63.656 203.736 63.637C206.171 63.576 208.607 63.527 211.042 63.563C211.693 63.6248 212.347 63.4829 212.914 63.1569C213.481 62.8308 213.932 62.3368 214.206 61.743C215.095 59.986 215.995 58.233 216.889 56.478C217.072 56.12 217.249 55.758 217.568 55.12C217.71 55.4396 217.813 55.7755 217.874 56.12C217.811 58.595 217.693 61.068 217.659 63.543C217.647 64.39 217.404 64.743 216.505 64.743C207.938 64.671 199.372 64.637 190.805 64.568C189.965 64.5462 189.129 64.4539 188.305 64.292C185.105 63.72 183.667 62.016 183.494 58.651C183.427 57.351 183.425 56.044 183.237 54.763C183.139 53.3586 182.499 52.0471 181.453 51.1051C180.406 50.1631 179.035 49.664 177.628 49.713C173.955 49.527 173.955 49.527 173.955 53.188C173.955 56.17 173.995 59.154 173.934 62.135C173.912 63.205 174.29 63.564 175.319 63.48C176.114 63.4073 176.915 63.4164 177.708 63.507C178.015 63.546 178.278 63.941 178.8 64.37C176.8 64.37 175.254 64.351 173.713 64.37C170.776 64.413 167.838 64.459 164.904 64.565C164.694 64.5862 164.492 64.6528 164.31 64.7602C164.129 64.8676 163.973 65.0133 163.854 65.187C163.319 66.217 162.538 67.0993 161.581 67.7563C160.624 68.4132 159.52 68.8246 158.367 68.954C155.633 69.5297 152.784 69.1643 150.283 67.917C149.239 67.3965 148.395 66.5489 147.877 65.5036C147.36 64.4583 147.199 63.2725 147.418 62.127C147.542 61.5853 147.788 61.0788 148.137 60.6458C148.485 60.2128 148.928 59.8646 149.43 59.6274C149.933 59.3903 150.483 59.2703 151.039 59.2767C151.595 59.283 152.142 59.4155 152.639 59.664C152.988 59.8391 153.291 60.0926 153.525 60.4047C153.759 60.7168 153.917 61.079 153.987 61.4627C154.057 61.8463 154.037 62.2411 153.929 62.6158C153.821 62.9905 153.627 63.335 153.363 63.622C152.911 63.9687 152.589 64.4583 152.451 65.011C152.312 65.5637 152.365 66.147 152.6 66.666C152.834 67.1894 153.229 67.6246 153.727 67.9087C154.225 68.1927 154.8 68.3109 155.37 68.246C156.67 68.258 157.942 67.952 158.313 66.582C158.847 64.8653 159.15 63.0849 159.213 61.288C159.163 53.188 158.943 45.088 158.808 36.988C158.795 36.208 158.48 35.958 157.743 35.983C156.694 36.019 155.643 36.031 154.594 35.966C154.269 35.946 153.962 35.641 153.646 35.466C153.94 35.276 154.233 34.92 154.527 34.919C163.096 34.89 171.667 34.806 180.232 34.968C182.194 35.0686 184.11 35.5947 185.848 36.51C188.197 37.695 189.021 39.955 188.794 42.576C188.759 43.739 188.39 44.8674 187.73 45.8261C187.071 46.7848 186.15 47.5332 185.076 47.982C184.133 48.401 183.113 48.647 181.903 49.046C182.33 49.194 182.563 49.299 182.803 49.357C184.599 49.6843 186.217 50.6455 187.364 52.0657C188.511 53.4858 189.11 55.2705 189.052 57.095C189.076 58.4343 189.22 59.7688 189.484 61.082C189.863 62.826 190.584 63.405 192.358 63.551C193.656 63.6563 194.959 63.6663 196.258 63.581C196.57 63.561 196.858 63.014 197.132 62.687C197.195 62.612 197.143 62.443 197.144 62.317C197.214 53.962 197.269 45.606 197.374 37.251C197.387 36.232 197.138 35.784 196.053 35.888C195.185 35.971 194.302 35.905 193.425 35.905L193.21 35.405ZM174.068 48.832C175.986 48.7826 177.899 48.6233 179.799 48.355C180.774 48.1337 181.633 47.5578 182.207 46.739C182.97 45.5749 183.415 44.2318 183.499 42.8426C183.583 41.4534 183.302 40.0664 182.685 38.819C181.579 36.433 179.307 35.838 176.885 35.832C173.63 35.824 174.226 35.578 174.118 38.439C174.107 38.732 174.068 39.023 174.067 39.316C174.062 42.399 174.064 45.49 174.064 48.832H174.068ZM168.66 35.99H166.781C164.881 35.99 164.881 35.99 164.881 37.913C164.901 46.368 165.503 54.828 164.687 63.459C165.497 63.4234 166.308 63.4287 167.118 63.475C168.305 63.594 168.606 63.113 168.601 61.967C168.576 55.843 168.635 49.719 168.658 43.595C168.663 41.13 168.656 38.665 168.656 35.99H168.66Z" fill="white"/>
<path d="M233.11 182.79V200.706H226.825V171.969C228.639 171.969 230.471 171.915 232.294 172.013C232.669 172.033 233.073 172.575 233.363 172.953C237.316 178.118 241.26 183.29 245.193 188.47C245.386 188.724 245.593 188.97 245.993 189.451V172.051H252.27V200.809C250.59 200.809 248.927 200.857 247.27 200.77C246.918 200.751 246.527 200.289 246.265 199.947C242.158 194.582 238.062 189.21 233.975 183.831C233.772 183.57 233.555 183.322 233.11 182.79Z" fill="white"/>
<path d="M84.982 200.749H78.6611V171.971C80.4941 171.971 82.328 171.918 84.154 172.015C84.529 172.035 84.9351 172.572 85.2241 172.95C89.1261 178.049 93.0177 183.157 96.899 188.272C97.126 188.572 97.3661 188.859 97.8441 189.459V172.015H104.144V200.803C102.444 200.803 100.738 200.853 99.044 200.761C98.703 200.743 98.344 200.225 98.074 199.874C94.0194 194.574 89.9727 189.268 85.934 183.956C85.685 183.63 85.423 183.314 84.985 182.764L84.982 200.749Z" fill="white"/>
<path d="M41.822 171.998H63.4119V177.716H48.165V183.385H61.534V189.124H48.2029V195.101H63.6409V200.716H41.822V171.998Z" fill="white"/>
<path d="M289.142 172.034V177.687H273.842V183.37H287.289V189.099H273.837V195.099H289.274V200.736H267.514V172.036L289.142 172.034Z" fill="white"/>
<path d="M136.695 172.015H142.847C142.868 172.384 142.903 172.707 142.903 173.03C142.903 178.364 142.966 183.699 142.885 189.03C142.825 193.003 141.699 196.578 138.305 199.055C134.205 202.055 126.428 202.055 122.317 199.083C121.028 198.162 119.967 196.957 119.215 195.562C118.464 194.166 118.043 192.618 117.983 191.034C117.728 187.102 117.794 183.148 117.747 179.204C117.719 176.857 117.742 174.509 117.742 172.063H124.212V173.381C124.212 178.295 124.212 183.209 124.212 188.123C124.212 188.585 124.212 189.048 124.24 189.508C124.481 193.05 126.656 195.241 130.069 195.388C133.621 195.541 136.015 193.607 136.369 189.967C136.624 187.302 136.534 184.602 136.559 181.918C136.589 178.726 136.578 175.535 136.589 172.343C136.611 172.23 136.647 172.12 136.695 172.015Z" fill="white"/>
<path d="M155.421 196.75L159.34 192.076C161.651 193.939 164.074 195.362 166.998 195.516C168.163 195.553 169.326 195.411 170.448 195.095C170.922 194.964 171.34 194.679 171.635 194.285C171.93 193.891 172.086 193.41 172.078 192.918C172.117 192.449 172.002 191.981 171.749 191.584C171.496 191.188 171.12 190.886 170.678 190.724C169.123 190.112 167.517 189.624 165.927 189.107C164.574 188.664 163.188 188.307 161.861 187.8C158.493 186.5 156.68 184.1 156.724 180.4C156.768 176.7 158.419 173.917 161.83 172.591C167.47 170.399 172.665 171.723 177.62 175.205L174.372 179.905C172.799 179.046 171.157 178.319 169.463 177.734C167.965 177.415 166.422 177.359 164.905 177.568C164.393 177.634 163.924 177.887 163.588 178.278C163.252 178.67 163.072 179.171 163.083 179.687C163.031 180.177 163.148 180.669 163.414 181.084C163.679 181.498 164.078 181.81 164.544 181.968C166.103 182.568 167.723 183.017 169.311 183.548C170.78 184.039 172.282 184.459 173.696 185.078C175.172 185.618 176.432 186.622 177.288 187.94C178.144 189.258 178.548 190.818 178.441 192.386C178.352 195.986 176.79 198.739 173.42 200.144C168.884 202.034 164.359 201.487 159.997 199.494C158.42 198.668 156.892 197.752 155.421 196.75Z" fill="white"/>
<path d="M211.893 175.012L208.574 179.812C206.584 178.921 204.55 178.132 202.481 177.447C201.334 177.232 200.154 177.272 199.025 177.564C198.538 177.639 198.094 177.882 197.768 178.251C197.442 178.62 197.257 179.092 197.244 179.584C197.166 180.091 197.269 180.61 197.535 181.049C197.801 181.487 198.213 181.819 198.699 181.984C200.224 182.559 201.799 183.012 203.342 183.53C204.849 184.03 206.395 184.455 207.842 185.091C209.373 185.661 210.667 186.73 211.517 188.126C212.367 189.521 212.723 191.162 212.527 192.784C212.537 194.372 212.067 195.926 211.177 197.241C210.288 198.556 209.021 199.571 207.543 200.152C205.614 200.943 203.546 201.339 201.461 201.317C199.376 201.295 197.317 200.855 195.405 200.024C193.368 199.092 191.389 198.038 189.479 196.869L193.424 192.112C194.164 192.624 194.853 193.149 195.588 193.598C197.927 195.212 200.797 195.867 203.605 195.428C204.218 195.39 204.801 195.151 205.264 194.747C205.727 194.344 206.043 193.799 206.165 193.197C206.334 191.897 205.781 190.997 204.15 190.406C202.382 189.765 200.545 189.318 198.75 188.751C197.713 188.424 196.683 188.062 195.674 187.651C194.268 187.176 193.047 186.271 192.182 185.066C191.317 183.86 190.852 182.413 190.852 180.929C190.695 179.413 190.974 177.883 191.656 176.52C192.339 175.157 193.396 174.018 194.705 173.236C198.382 170.992 202.341 171.171 206.251 172.389C208.189 173.134 210.074 174.01 211.893 175.012Z" fill="white"/>
<path d="M327.2 172.011V177.842H318.582V200.723H312.107V177.933H303.419V172.011H327.2Z" fill="white"/>
<path d="M271.464 30.082C272.247 33.082 273.176 36.057 271.447 38.92C271.768 39.198 272.236 39.4 272.322 39.708C273.077 41.8516 273.294 44.1481 272.952 46.395C272.847 47.2146 272.467 47.9743 271.874 48.549C271.28 49.1236 270.508 49.4792 269.686 49.557C269.281 49.6227 268.867 49.6004 268.472 49.4917C268.076 49.383 267.709 49.1904 267.395 48.927C267.08 48.6636 266.827 48.3355 266.65 47.9652C266.474 47.5949 266.38 47.191 266.374 46.781C266.242 44.403 267.528 42.648 269.006 41C269.262 40.7947 269.55 40.6311 269.857 40.515L269.584 40.147C269.226 40.147 268.868 40.159 268.511 40.147C267.836 40.1157 267.196 39.8378 266.712 39.3659C266.228 38.8941 265.934 38.2611 265.886 37.587C265.573 34.783 268.504 30.765 271.464 30.082Z" fill="white"/>
<path d="M257.654 45.2419C258.297 45.3492 258.932 45.5002 259.554 45.6939C261.733 46.5055 263.568 48.039 264.754 50.0389C265.935 52.0389 265.569 54.3149 263.991 55.1729C263.522 55.4157 263.009 55.5596 262.482 55.5958C261.956 55.632 261.427 55.5596 260.93 55.3833C260.432 55.207 259.976 54.9304 259.59 54.5706C259.204 54.2109 258.895 53.7757 258.684 53.2919C257.454 50.8429 257.503 48.2019 257.654 45.2419Z" fill="white"/>
<path d="M272.891 50.637C273.13 53.2258 272.682 55.832 271.591 58.192C271.284 58.8898 270.766 59.474 270.11 59.8625C269.454 60.2509 268.693 60.4242 267.933 60.358C267.46 60.3581 266.994 60.2475 266.571 60.035C266.148 59.8225 265.782 59.514 265.5 59.1343C265.218 58.7545 265.029 58.314 264.948 57.848C264.867 57.3821 264.896 56.9036 265.033 56.4509C265.723 53.5839 269.739 50.563 272.891 50.637Z" fill="white"/>
<path d="M276.473 7.84903C273.131 11.785 271.336 16.456 270.091 21.369C269.963 22.2196 269.946 23.0832 270.041 23.938C270.178 25.5101 270.209 27.0898 270.133 28.666C270.063 29.4107 269.714 30.1013 269.156 30.5995C268.598 31.0978 267.873 31.3669 267.125 31.353C266.769 31.3933 266.409 31.356 266.069 31.244C265.728 31.1319 265.417 30.9475 265.154 30.7036C264.892 30.4597 264.686 30.162 264.549 29.8308C264.413 29.4996 264.35 29.1429 264.364 28.785C264.332 25.985 266.013 24.167 268.031 22.527C268.596 22.0846 269.031 21.4971 269.289 20.827C270.789 16.262 272.569 11.851 275.81 8.18603C275.955 7.98853 276.08 7.77755 276.184 7.55603L276.473 7.84903Z" fill="white"/>
<path d="M258.381 28.288C261.481 28.224 265.354 31.588 265.568 34.435C265.642 35.0038 265.533 35.5812 265.258 36.0842C264.982 36.5873 264.555 36.9902 264.036 37.235C263.377 37.5788 262.619 37.6826 261.892 37.5286C261.165 37.3746 260.515 36.9724 260.052 36.391C259.458 35.4897 259 34.5058 258.693 33.471C258.492 32.7441 258.391 31.9932 258.393 31.239C258.347 30.286 258.381 29.329 258.381 28.288Z" fill="white"/>
<path d="M258.171 37.356C261.137 37.213 264.73 39.55 265.693 42.132C265.943 42.7339 265.994 43.4 265.839 44.0331C265.685 44.6662 265.332 45.2333 264.832 45.652C264.226 46.0751 263.495 46.2826 262.757 46.241C262.019 46.1995 261.317 45.9114 260.762 45.423C260.013 44.539 259.4 43.5481 258.943 42.483C258.648 41.7437 258.464 40.965 258.396 40.172C258.268 39.266 258.245 38.348 258.171 37.356Z" fill="white"/>
<path d="M273.545 0.302002C271.147 4.07071 269.39 8.21079 268.345 12.554C268.205 13.4398 268.181 14.3399 268.272 15.232C268.303 16.889 268.506 18.555 268.372 20.197C268.314 20.7492 268.081 21.2684 267.707 21.679C267.333 22.0896 266.838 22.3702 266.294 22.48C264.025 23.08 262.37 21.343 262.973 18.945C263.514 17.0759 264.661 15.4401 266.235 14.296C266.738 13.8942 267.119 13.3598 267.335 12.753C268.488 8.63139 270.33 4.73423 272.781 1.22601C273.02 0.902006 273.289 0.602002 273.545 0.302002Z" fill="white"/>
<path d="M252.112 10.754C253.368 12.226 254.63 13.693 255.877 15.173C256.146 15.4945 256.386 15.8392 256.594 16.203C257.467 17.9891 258.917 19.4289 260.709 20.29C262.074 21.085 263.207 22.2247 263.994 23.595C264.211 23.907 264.363 24.2595 264.44 24.6316C264.517 25.0036 264.519 25.3874 264.444 25.76C264.369 26.1326 264.22 26.4862 264.005 26.7996C263.79 27.1131 263.514 27.3799 263.194 27.584C262.836 27.7869 262.441 27.916 262.032 27.9637C261.624 28.0115 261.21 27.9768 260.815 27.8619C260.42 27.747 260.052 27.5541 259.732 27.2946C259.413 27.0351 259.149 26.7142 258.956 26.351C258.292 25.0113 257.921 23.5454 257.868 22.051C257.928 20.2083 257.382 18.3968 256.314 16.894C254.875 14.894 253.414 12.915 251.968 10.927L252.112 10.754Z" fill="white"/>
<path d="M249.988 0C250.855 0.747025 251.658 1.56521 252.388 2.446C254.127 4.902 255.717 7.463 257.422 9.946C257.802 10.506 258.311 10.9666 258.906 11.289C260.407 11.9651 261.659 13.0934 262.488 14.516C262.856 15.0615 262.996 15.7289 262.88 16.3764C262.763 17.0239 262.398 17.6003 261.863 17.983C261.553 18.1654 261.208 18.281 260.851 18.3223C260.494 18.3636 260.132 18.3299 259.788 18.2231C259.445 18.1163 259.127 17.9389 258.856 17.7023C258.585 17.4656 258.367 17.175 258.215 16.849C257.778 15.5116 257.467 14.1363 257.285 12.741C257.198 12.005 257.034 11.2803 256.794 10.579C255.158 6.70568 252.768 3.19655 249.763 0.255997L249.988 0Z" fill="white"/>
<path d="M284.969 67.1799C284.447 68.7089 284.06 70.163 283.445 71.513C283.066 72.2548 282.512 72.8932 281.831 73.373C281.358 73.7289 280.774 73.9032 280.184 73.8642C279.593 73.8251 279.037 73.5752 278.615 73.1601C278.194 72.7449 277.936 72.1922 277.888 71.6026C277.84 71.013 278.005 70.4257 278.354 69.9479C279.11 68.9388 280.121 68.15 281.285 67.6634C282.448 67.1767 283.72 67.0098 284.969 67.1799Z" fill="white"/>
<path d="M274.008 66.613C274.978 67.2247 275.787 68.0592 276.37 69.047C276.952 70.0348 277.29 71.1473 277.355 72.292C277.412 72.6142 277.402 72.9448 277.324 73.2627C277.247 73.5806 277.103 73.8788 276.904 74.1382C276.704 74.3975 276.453 74.6123 276.165 74.7688C275.878 74.9254 275.561 75.0201 275.235 75.047C274.877 75.0634 274.52 75.0081 274.184 74.8844C273.848 74.7608 273.54 74.5712 273.278 74.3269C273.016 74.0825 272.806 73.7884 272.659 73.4616C272.512 73.1348 272.432 72.7821 272.424 72.424C272.26 70.376 273.029 68.592 274.008 66.613Z" fill="white"/>
<path d="M280.236 36.139C281.452 38.3424 282.232 40.76 282.531 43.259C282.591 43.5461 282.631 43.8372 282.649 44.13C282.587 46.004 283.195 47.8388 284.365 49.304C284.922 50.1855 285.221 51.2054 285.228 52.248C285.268 52.5193 285.251 52.7957 285.18 53.0605C285.109 53.3253 284.985 53.5728 284.815 53.788C284.646 54.0033 284.434 54.1816 284.193 54.3123C283.952 54.443 283.687 54.5232 283.414 54.548C283.121 54.5818 282.824 54.555 282.542 54.4692C282.26 54.3833 281.999 54.2404 281.774 54.0493C281.55 53.8581 281.367 53.6228 281.238 53.358C281.108 53.0932 281.034 52.8046 281.021 52.51C280.891 51.6019 281.011 50.6754 281.367 49.83C282.705 47.466 282.293 45.016 281.882 42.615C281.486 40.301 280.734 38.048 280.236 36.139Z" fill="white"/>
<path d="M276.491 59.186C278.648 60.343 280.069 63.507 279.505 65.604C279.421 66.0632 279.185 66.4808 278.835 66.79C278.485 67.0993 278.042 67.2824 277.576 67.31C277.027 67.3902 276.468 67.2674 276.004 66.9648C275.539 66.6621 275.201 66.2003 275.052 65.666C274.824 64.7013 274.824 63.6967 275.052 62.732C275.442 61.5158 275.923 60.3305 276.491 59.186Z" fill="white"/>
<path d="M289.364 53.776C288.823 55.3383 288.196 56.8696 287.487 58.363C287.29 58.7014 287.024 58.9947 286.706 59.2238C286.388 59.4529 286.026 59.6127 285.642 59.693C285.224 59.7336 284.801 59.6831 284.404 59.545C284.007 59.4069 283.645 59.1845 283.342 58.893C283.144 58.5259 283.028 58.1198 283.004 57.7033C282.979 57.2867 283.046 56.8699 283.2 56.482C283.943 54.704 286.955 53.367 289.364 53.776Z" fill="white"/>
<path d="M279.453 52.59C280.358 53.2365 281.088 54.0966 281.58 55.0936C282.072 56.0906 282.31 57.1938 282.273 58.305C282.268 58.8341 282.078 59.3447 281.734 59.747C281.39 60.1494 280.916 60.4177 280.394 60.505C279.824 60.554 279.255 60.4046 278.783 60.082C278.311 59.7594 277.965 59.2835 277.804 58.735C277.32 56.448 278.317 54.563 279.453 52.59Z" fill="white"/>
<path d="M286.706 60.054C286.37 61.3277 285.965 62.5819 285.491 63.811C285.133 64.5592 284.618 65.221 283.98 65.751C283.521 66.087 282.961 66.2546 282.393 66.2254C281.825 66.1963 281.285 65.9722 280.863 65.591C280.48 65.1953 280.258 64.6715 280.24 64.1213C280.221 63.571 280.408 63.0335 280.763 62.613C281.454 61.7156 282.362 61.0094 283.402 60.5616C284.442 60.1137 285.58 59.939 286.706 60.054Z" fill="white"/>
<path d="M296.512 42.8189C295.639 43.5329 294.751 44.2279 293.898 44.9639C292.338 46.1056 291.246 47.7763 290.828 49.6639C290.61 50.5572 290.186 51.3868 289.589 52.0859C289.391 52.3437 289.143 52.5585 288.859 52.7172C288.575 52.8758 288.262 52.9751 287.939 53.0089C287.616 53.0426 287.289 53.0102 286.979 52.9136C286.668 52.817 286.381 52.6582 286.134 52.4469C285.918 52.2295 285.751 51.9675 285.646 51.679C285.542 51.3906 285.501 51.0828 285.528 50.7771C285.555 50.4714 285.648 50.1753 285.801 49.9095C285.954 49.6436 286.164 49.4144 286.415 49.2379C287.588 48.4753 288.826 47.8187 290.115 47.2759C290.668 47.0515 291.195 46.7703 291.69 46.4369C293.247 45.1569 294.754 43.8149 296.28 42.4969L296.512 42.8189Z" fill="white"/>
<path d="M283.622 31.985C284.747 34.3926 285.399 36.9942 285.542 39.648C285.519 40.894 285.913 42.1119 286.662 43.108C287.231 43.9325 287.596 44.88 287.728 45.873C287.807 46.1576 287.826 46.4555 287.783 46.7478C287.74 47.04 287.637 47.3201 287.479 47.57C287.322 47.8199 287.114 48.0341 286.869 48.1989C286.624 48.3637 286.347 48.4755 286.056 48.527C285.751 48.5589 285.443 48.5265 285.152 48.432C284.861 48.3374 284.593 48.1828 284.365 47.978C284.137 47.7733 283.955 47.5231 283.83 47.2435C283.705 46.9639 283.641 46.6612 283.64 46.355C283.565 45.5198 283.718 44.6798 284.083 43.925C285.449 41.625 285.008 39.231 284.643 36.845C284.393 35.21 283.969 33.603 283.622 31.985Z" fill="white"/>
<path d="M299.718 35.208C298.048 36.771 296.559 38.108 295.134 39.516C293.909 40.605 293.033 42.0313 292.616 43.616C292.377 44.4129 291.946 45.1387 291.36 45.729C291.012 46.0698 290.548 46.265 290.061 46.2748C289.574 46.2847 289.102 46.1084 288.741 45.782C288.566 45.6256 288.427 45.4335 288.333 45.2186C288.238 45.0037 288.192 44.7711 288.195 44.5366C288.199 44.302 288.252 44.0709 288.353 43.8589C288.454 43.647 288.598 43.4591 288.778 43.308C289.741 42.6081 290.766 41.9969 291.84 41.482C292.417 41.2316 292.955 40.901 293.44 40.5C295.237 38.4126 297.357 36.6261 299.718 35.208Z" fill="white"/>
</g>
<defs>
<clipPath id="clip0_1_184">
<rect width="365.205" height="201.452" fill="white"/>
</clipPath>
</defs>
</svg>
