<svg width="16" height="18" viewBox="0 0 16 18" fill="none" xmlns="http://www.w3.org/2000/svg">
<path d="M12.7142 12.8808L9.17835 16.4167C8.86583 16.7289 8.44217 16.9042 8.00043 16.9042C7.55869 16.9042 7.13503 16.7289 6.82251 16.4167L3.28585 12.8808C2.35353 11.9485 1.71863 10.7606 1.46142 9.46739C1.20421 8.17419 1.33625 6.83376 1.84085 5.61561C2.34544 4.39745 3.19993 3.35628 4.29625 2.62376C5.39257 1.89123 6.68149 1.50024 8.00001 1.50024C9.31854 1.50024 10.6075 1.89123 11.7038 2.62376C12.8001 3.35628 13.6546 4.39745 14.1592 5.61561C14.6638 6.83376 14.7958 8.17419 14.5386 9.46739C14.2814 10.7606 13.6465 11.9485 12.7142 12.8808V12.8808Z" stroke="white" stroke-width="1.25" stroke-linecap="round" stroke-linejoin="round"/>
</svg>
